<?xml version="1.0" standalone="no"?>
<!DOCTYPE svg PUBLIC "-//W3C//DTD SVG 20010904//EN"
 "http://www.w3.org/TR/2001/REC-SVG-20010904/DTD/svg10.dtd">
<svg version="1.0" xmlns="http://www.w3.org/2000/svg"
 width="1408" height="768" viewBox="0 0 1408.000000 768.000000"
 preserveAspectRatio="xMidYMid meet">
<metadata>
Created by potrace 1.16, written by Peter Selinger 2001-2019
</metadata>
<g transform="translate(0.000000,768.000000) scale(0.100000,-0.100000)"
fill="#000000" stroke="none">
<path d="M6805 5616 c-350 -67 -630 -216 -859 -456 -271 -285 -427 -640 -467
-1060 -47 -501 135 -1021 481 -1370 122 -124 246 -216 390 -289 311 -159 646
-207 983 -141 199 39 409 130 584 253 112 79 279 246 363 362 230 319 353 763
320 1161 -62 763 -542 1356 -1230 1521 -89 21 -134 26 -300 29 -135 2 -216 -1
-265 -10z m440 -181 c187 -28 371 -101 538 -213 133 -88 299 -262 399 -418 87
-136 168 -342 209 -534 20 -91 23 -135 23 -325 0 -242 -12 -331 -75 -520 -198
-598 -753 -999 -1344 -972 -349 16 -625 134 -873 372 -222 212 -358 454 -428
760 -23 102 -28 149 -32 312 -5 215 4 298 49 472 151 585 617 1010 1179 1074
86 10 263 6 355 -8z M6919 5300 c-398 -37 -754 -291 -951 -678 -214 -421 -218
-907 -13 -1324 247 -501 767 -779 1284 -687 238 42 446 154 632 339 253 251
381 554 396 937 11 273 -35 488 -152 723 -238 477 -688 736 -1196 690z m376
-209 c392 -104 690 -456 771 -911 21 -113 24 -342 6 -446 -52 -313 -213 -590
-441 -762 -210 -158 -495 -231 -738 -188 -476 83 -824 469 -894 993 -7 54 -9
142 -6 228 13 306 105 548 295 770 147 172 347 288 577 334 86 17 338 7 430
-18z M11464 4701 c-2 -2 -4 -287 -4 -633 l0 -628 100 0 100 0 0 630 0 630 -22
0 c-13 1 -56 2 -96 3 -41 1 -76 0 -78 -2z M2100 4030 l0 -590 100 0 100 0 2
412 3 412 75 -94 c41 -52 169 -214 285 -360 116 -146 228 -288 250 -317 l40
-52 88 -1 87 0 0 590 0 590 -100 0 -100 0 -2 -412 -3 -413 -135 171 c-74 95
-220 280 -325 413 l-190 241 -87 0 -88 0 0 -590z M3580 4346 c-66 -19 -167
-66 -185 -86 -17 -19 -19 -15 51 -127 l14 -23 63 35 c151 83 348 58 392 -49 7
-17 15 -50 18 -72 l5 -42 -182 -5 c-198 -5 -231 -12 -303 -60 -133 -88 -140
-313 -15 -417 117 -97 347 -91 475 11 l37 30 0 -51 0 -50 91 0 90 0 -3 328
c-3 316 -4 329 -27 386 -31 78 -79 129 -159 168 -63 31 -73 33 -192 35 -78 1
-142 -3 -170 -11z m360 -558 c0 -125 -94 -208 -234 -208 -69 0 -129 31 -151
77 -33 70 0 152 69 172 17 5 95 10 174 10 l142 1 0 -52z M4740 4351 c-41 -13
-105 -48 -139 -76 l-31 -27 0 51 0 51 -95 0 -95 0 0 -455 0 -456 98 3 97 3 5
290 c5 275 6 292 27 332 59 109 199 156 310 102 98 -48 113 -106 113 -461 l0
-268 96 0 95 0 -3 333 -3 332 -28 60 c-36 78 -88 130 -162 166 -54 26 -69 29
-160 28 -55 0 -111 -4 -125 -8z M9205 4346 c-59 -19 -101 -43 -146 -83 l-39
-35 0 61 0 61 -95 0 -95 0 0 -455 0 -455 100 0 100 0 0 253 c0 203 3 264 16
308 29 99 131 169 246 169 l48 0 0 95 0 95 -47 -1 c-27 0 -66 -6 -88 -13z
M9675 4341 c-77 -23 -129 -45 -165 -71 l-30 -21 27 -52 c14 -29 32 -62 40 -74
l15 -22 49 31 c68 41 129 58 215 58 80 0 117 -10 153 -43 31 -28 61 -94 61
-133 l0 -32 -177 -5 c-201 -5 -253 -16 -325 -71 -79 -60 -111 -179 -79 -294
16 -57 70 -115 139 -149 52 -26 66 -28 172 -28 103 0 121 3 170 26 30 14 68
38 83 53 31 29 39 32 36 14 -1 -7 -1 -30 0 -50 l1 -38 91 0 90 0 -3 328 c-3
316 -4 329 -27 387 -31 77 -100 145 -178 176 -81 31 -270 37 -358 10z m365
-565 c0 -74 -21 -113 -87 -160 -35 -24 -55 -30 -116 -34 -44 -3 -89 0 -110 7
-110 37 -118 184 -14 232 35 15 66 19 185 19 l142 0 0 -64z M10761 4345 c-81
-23 -145 -62 -205 -125 -97 -101 -131 -199 -124 -355 4 -88 9 -111 36 -169 37
-79 121 -171 190 -209 68 -37 154 -57 242 -57 141 1 224 34 318 126 34 34 62
68 62 76 0 7 -35 32 -76 56 l-76 43 -35 -41 c-53 -62 -103 -84 -193 -84 -66
-1 -82 3 -130 30 -61 35 -113 101 -131 167 -18 68 -7 183 24 244 31 60 100
118 161 134 52 14 143 6 187 -16 19 -10 52 -37 74 -60 l41 -43 69 44 c39 24
74 45 80 47 12 4 -41 76 -82 111 -17 14 -62 40 -99 58 -60 28 -79 32 -173 35
-73 2 -123 -2 -160 -12z M12188 4345 c-204 -56 -328 -229 -328 -456 0 -270
199 -459 482 -459 95 0 168 15 233 48 54 27 121 77 129 97 2 7 -21 38 -53 69
l-57 57 -30 -26 c-62 -53 -112 -70 -214 -70 -84 0 -101 3 -146 27 -62 33 -118
95 -138 154 l-15 44 356 0 356 0 -5 104 c-4 93 -8 111 -40 177 -57 121 -153
201 -283 235 -62 17 -185 16 -247 -1z m211 -161 c68 -20 131 -82 154 -149 10
-27 17 -52 17 -57 0 -4 -117 -8 -261 -8 l-260 0 7 22 c53 167 183 240 343 192z"/>
</g>
</svg>
